<svg width="150" height="150" viewBox="0 0 150 150" fill="none" xmlns="http://www.w3.org/2000/svg">
<path d="M0 74.9999C0 54.2968 7.32421 36.6211 21.9728 21.9726C36.6211 7.32421 54.2968 0 75.0001 0C95.703 0 113.379 7.32421 128.027 21.9726C142.676 36.6211 150 54.2968 150 74.9999C150 95.703 142.676 113.379 128.027 128.027C113.379 142.676 95.7032 150 75.0001 150C54.2968 150 36.6211 142.676 21.9728 128.027C7.32421 113.379 0 95.7029 0 74.9999ZM8.20312 74.9999C8.20312 93.3594 14.7461 109.082 27.832 122.168C40.9179 135.254 56.6406 141.797 75.0001 141.797C93.3594 141.797 109.082 135.254 122.168 122.168C135.254 109.082 141.797 93.3594 141.797 74.9999C141.797 56.6406 135.254 40.9179 122.168 27.832C109.082 14.7461 93.3593 8.20312 75.0001 8.20312C56.6406 8.20312 40.9181 14.7461 27.832 27.832C14.7461 40.9179 8.20312 56.6406 8.20312 74.9999ZM29.297 91.1132C28.9064 90.7226 28.9064 90.3319 29.297 89.9413C30.0781 89.1601 31.0548 88.8671 32.2265 89.0624C33.3984 89.2577 34.082 89.453 34.2773 89.6483C35.6445 90.2343 37.1582 91.5526 38.8182 93.6035C40.4783 95.6543 41.7967 97.0702 42.7734 97.8515C47.4609 101.758 52.2459 102.051 57.1287 98.7304C57.5193 97.3632 58.1542 96.1913 59.0329 95.2146C59.9117 94.238 60.742 93.5546 61.5232 93.1638C62.3046 92.7732 63.6718 92.1873 65.6249 91.406C59.1795 90.8201 53.9549 89.697 49.951 88.0368C45.9471 86.3766 42.7732 84.2771 40.4295 81.738C37.3045 78.2224 35.4001 73.6326 34.7165 67.9685C34.0328 62.3045 34.4723 57.1287 36.035 52.4412C37.2068 49.5115 38.867 46.875 41.0153 44.5311C39.4528 39.6483 39.7458 34.0818 41.8942 27.8319C48.1442 28.2225 53.8082 30.3709 58.8864 34.2772C68.652 31.7381 78.8082 31.6404 89.3549 33.9842C90.7221 33.0076 92.8218 31.787 95.6537 30.322C98.4857 28.8572 102.05 28.027 106.347 27.8317C107.128 29.9801 107.666 32.5192 107.959 35.4489C108.251 38.3786 108.105 41.1129 107.519 43.652C112.011 48.3395 114.355 54.5895 114.55 62.402C114.55 68.652 113.476 73.8277 111.328 77.9293C109.179 82.0309 105.371 85.4488 99.9019 88.1831C96.191 89.941 91.3082 91.0151 85.2535 91.4057C87.988 92.7729 89.9899 94.189 91.2594 95.6538C92.5291 97.1187 93.3591 99.4135 93.7499 102.539V111.767L94.0427 120.703C94.6287 121.679 95.3124 122.509 96.0937 123.193C96.8749 123.877 97.5585 124.365 98.1444 124.658C98.7302 124.951 98.9257 125.39 98.7302 125.976C98.5349 126.562 97.7537 126.855 96.3866 126.855C93.0662 126.855 90.4296 125.683 88.4765 123.34C87.8905 122.363 87.5976 121.191 87.5976 119.824V105.761C87.5976 104.199 87.2069 103.076 86.4257 102.392C85.6444 101.709 84.8632 101.269 84.0819 101.074V119.531C84.0819 122.851 84.4726 125 85.2538 125.976C86.0351 126.953 86.5234 127.929 86.7188 128.906C86.9141 129.101 86.7676 129.248 86.2793 129.345C85.7912 129.443 84.961 129.296 83.789 128.906C81.2499 128.32 79.4921 127.001 78.5155 124.951C77.539 122.9 77.0507 120.703 77.0507 118.359V100.195H73.2421V118.359C73.2421 120.703 72.7537 122.949 71.7771 125.098C70.4101 127.832 67.8709 129.297 64.1601 129.492C63.5742 129.297 63.2812 129.101 63.2812 128.906C63.4765 128.711 64.0624 127.734 65.039 125.977C65.2343 125.586 65.4785 124.805 65.7715 123.633C66.0646 122.461 66.211 121.094 66.211 119.531V101.074C65.4298 101.269 64.6973 101.709 64.0137 102.393C63.3301 103.076 62.9882 104.199 62.9882 105.762V119.824C62.9882 121.191 62.6953 122.363 62.1093 123.34C60.3515 125.684 57.7148 126.856 54.1993 126.856C52.8321 126.856 52.0509 126.563 51.8556 125.977C51.6601 125.586 51.709 125.244 52.0021 124.951C52.2952 124.658 52.7346 124.316 53.3206 123.926C53.9065 123.535 54.2971 123.242 54.4924 123.047C55.2737 122.461 55.8595 121.68 56.2502 120.703C56.8362 119.922 56.9826 117.871 56.6896 114.551C56.3967 111.231 56.3477 109.082 56.5431 108.106C51.4648 109.863 46.2892 108.984 41.0156 105.469C39.4531 103.906 37.8906 101.66 36.3281 98.7305C35.1562 96.5819 32.8125 94.0429 29.297 91.1132V91.1132Z" fill="white"/>
</svg>
