<svg width="600" height="650" viewBox="0 0 600 650" fill="none" xmlns="http://www.w3.org/2000/svg">
<path fill-rule="evenodd" clip-rule="evenodd" d="M123.22 70.51C153.34 121.79 179.63 176.28 209.75 226.28C162.32 278.2 202.06 367.29 208.47 382.04C246.29 452.55 307.19 499.34 356.55 482.67C445.01 628.82 359.75 483.96 445.01 632.03C223.22 744.2 -77.42 112.18 123.22 70.51Z" fill="white"/>
<path fill-rule="evenodd" clip-rule="evenodd" d="M144.45 41.77C136.11 47.54 133.55 57.8 138.68 65.49C166.24 112.92 195.09 161 223.93 208.43C229.7 216.12 239.96 219.97 247.65 214.84C268.81 202.66 288.68 191.12 309.19 179.59C317.52 173.82 320.09 162.28 316.24 154.59C287.4 107.15 258.55 59.08 229.7 11.65C225.22 3.95001 213.68 1.39001 205.99 6.52001C184.83 18.7 164.96 30.24 144.45 41.77Z" fill="white"/>
<path fill-rule="evenodd" clip-rule="evenodd" d="M377.78 447.52C369.45 453.29 366.88 463.55 372.01 471.24C399.58 519.96 427.14 568.03 455.99 616.75C459.83 624.44 472.01 628.28 479.7 623.16C500.86 610.98 520.73 599.44 541.24 587.9C549.58 582.77 552.14 570.59 548.29 562.9C519.45 514.19 491.88 466.11 463.04 417.4C458.55 409.7 447.01 407.14 439.32 412.27C418.17 424.45 398.29 435.99 377.78 447.52Z" fill="white"/>
</svg>
