<svg width="300" height="300" viewBox="0 0 300 300" fill="none" xmlns="http://www.w3.org/2000/svg">
<path d="M205.581 56.375L174.209 216.555C174.209 216.555 172.86 223.875 163.782 223.875C158.958 223.875 156.47 221.58 156.47 221.58L88.5155 165.191L55.2668 148.433L12.5961 137.085C12.5961 137.085 5 134.891 5 128.609C5 123.375 12.8139 120.879 12.8139 120.879L191.335 49.9598C191.327 49.9514 196.788 47.9917 200.766 48C203.211 48 206 49.0469 206 52.1875C206 54.2813 205.581 56.375 205.581 56.375Z" fill="white"/>
<path d="M117.96 185.677L80.2422 222.823C80.2422 222.823 78.6019 224.089 76.411 224.144C75.6514 224.166 74.8367 224.045 74 223.67L84.6129 158L117.96 185.677Z" fill="#B0BEC5"/>
<path d="M184.515 72.882C182.891 70.7684 179.894 70.3841 177.78 71.9885L51 147.859C51 147.859 71.2333 204.466 74.3173 214.266C77.4109 224.075 79.8897 224.305 79.8897 224.305L89.1513 166.997L183.612 79.6073C185.726 78.0028 186.119 74.9957 184.515 72.882Z" fill="#CFD8DC"/>
</svg>
